<svg width="24" height="25" viewBox="0 0 24 25" fill="none" xmlns="http://www.w3.org/2000/svg">
  <mask id="mask0_43_309" style="mask-type:alpha" maskUnits="userSpaceOnUse" x="0" y="0" width="24"
    height="25">
    <g clip-path="url(#clip0_43_309)">
      <path fill-rule="evenodd" clip-rule="evenodd"
        d="M7.37512 4.49999C7.37512 4.33423 7.44096 4.17526 7.55818 4.05805C7.67539 3.94084 7.83436 3.87499 8.00012 3.87499C8.16588 3.87499 8.32485 3.94084 8.44206 4.05805C8.55927 4.17526 8.62512 4.33423 8.62512 4.49999C8.62512 4.86467 8.76998 5.2144 9.02784 5.47227C9.28571 5.73013 9.63544 5.87499 10.0001 5.87499C10.1659 5.87499 10.3248 5.94084 10.4421 6.05805C10.5593 6.17526 10.6251 6.33423 10.6251 6.49999C10.6251 6.66575 10.5593 6.82473 10.4421 6.94194C10.3248 7.05915 10.1659 7.12499 10.0001 7.12499C9.63544 7.12499 9.28571 7.26986 9.02784 7.52772C8.76998 7.78559 8.62512 8.13532 8.62512 8.49999C8.62512 8.66575 8.55927 8.82473 8.44206 8.94194C8.32485 9.05915 8.16588 9.12499 8.00012 9.12499C7.83436 9.12499 7.67539 9.05915 7.55818 8.94194C7.44096 8.82473 7.37512 8.66575 7.37512 8.49999C7.37512 8.13532 7.23025 7.78559 6.97239 7.52772C6.71453 7.26986 6.36479 7.12499 6.00012 7.12499C5.83436 7.12499 5.67538 7.05915 5.55817 6.94194C5.44096 6.82473 5.37512 6.66575 5.37512 6.49999C5.37512 6.33423 5.44096 6.17526 5.55817 6.05805C5.67538 5.94084 5.83436 5.87499 6.00012 5.87499C6.36479 5.87499 6.71453 5.73013 6.97239 5.47227C7.23025 5.2144 7.37512 4.86467 7.37512 4.49999ZM8.00012 6.19999C7.90837 6.30792 7.80805 6.40825 7.70012 6.49999C7.80805 6.59174 7.90837 6.69206 8.00012 6.79999C8.09186 6.69206 8.19219 6.59174 8.30012 6.49999C8.19219 6.40825 8.09186 6.30792 8.00012 6.19999ZM16.8911 4.05799C16.9492 3.99994 17.0181 3.95389 17.0939 3.92247C17.1697 3.89105 17.251 3.87488 17.3331 3.87488C17.4152 3.87488 17.4965 3.89105 17.5723 3.92247C17.6482 3.95389 17.7171 3.99994 17.7751 4.05799L20.4421 6.72499C20.5002 6.78303 20.5462 6.85194 20.5776 6.92778C20.6091 7.00362 20.6252 7.0849 20.6252 7.16699C20.6252 7.24908 20.6091 7.33037 20.5776 7.40621C20.5462 7.48205 20.5002 7.55096 20.4421 7.60899L7.10912 20.942C7.05108 21 6.98217 21.0461 6.90633 21.0775C6.83049 21.1089 6.74921 21.1251 6.66712 21.1251C6.58503 21.1251 6.50374 21.1089 6.4279 21.0775C6.35206 21.0461 6.28316 21 6.22512 20.942L3.55812 18.275C3.50006 18.217 3.45401 18.148 3.42259 18.0722C3.39117 17.9964 3.375 17.9151 3.375 17.833C3.375 17.7509 3.39117 17.6696 3.42259 17.5938C3.45401 17.5179 3.50006 17.449 3.55812 17.391L16.8911 4.05799ZM17.3331 5.38399L15.5511 7.16699L17.3331 8.94899L19.1161 7.16699L17.3331 5.38399ZM16.4491 9.83399L14.6671 8.04999L4.88412 17.832L6.66712 19.615L16.4491 9.83199V9.83399ZM18.5001 13.875C18.8451 13.875 19.1251 14.155 19.1251 14.5C19.1251 14.7321 19.2173 14.9546 19.3814 15.1187C19.5455 15.2828 19.7681 15.375 20.0001 15.375C20.1659 15.375 20.3248 15.4408 20.4421 15.5581C20.5593 15.6753 20.6251 15.8342 20.6251 16C20.6251 16.1658 20.5593 16.3247 20.4421 16.4419C20.3248 16.5591 20.1659 16.625 20.0001 16.625C19.7681 16.625 19.5455 16.7172 19.3814 16.8813C19.2173 17.0454 19.1251 17.2679 19.1251 17.5C19.1251 17.6658 19.0593 17.8247 18.9421 17.9419C18.8248 18.0591 18.6659 18.125 18.5001 18.125C18.3344 18.125 18.1754 18.0591 18.0582 17.9419C17.941 17.8247 17.8751 17.6658 17.8751 17.5C17.8751 17.2679 17.7829 17.0454 17.6188 16.8813C17.4547 16.7172 17.2322 16.625 17.0001 16.625C16.8344 16.625 16.6754 16.5591 16.5582 16.4419C16.441 16.3247 16.3751 16.1658 16.3751 16C16.3751 15.8342 16.441 15.6753 16.5582 15.5581C16.6754 15.4408 16.8344 15.375 17.0001 15.375C17.2322 15.375 17.4547 15.2828 17.6188 15.1187C17.7829 14.9546 17.8751 14.7321 17.8751 14.5C17.8751 14.155 18.1551 13.875 18.5001 13.875Z"
        fill="#29333D" />
    </g>
  </mask>
  <g mask="url(#mask0_43_309)">
    <rect y="0.5" width="24" height="24" fill="currentColor" />
  </g>
  <defs>
    <clipPath id="clip0_43_309">
      <rect width="24" height="24" fill="white" transform="translate(0 0.5)" />
    </clipPath>
  </defs>
</svg>