<svg width="16" height="16" viewBox="0 0 16 16" fill="none" xmlns="http://www.w3.org/2000/svg">
<rect width="16" height="16" rx="8" fill="#F32121"/>
<path d="M8.43701 9.33057H7.5874L7.3335 4.35986H8.68604L8.43701 9.33057ZM7.2749 10.8882C7.2749 10.6473 7.33838 10.465 7.46533 10.3413C7.59229 10.2144 7.77295 10.1509 8.00732 10.1509C8.23844 10.1509 8.41585 10.216 8.53955 10.3462C8.66325 10.4764 8.7251 10.6571 8.7251 10.8882C8.7251 11.1193 8.66162 11.3032 8.53467 11.4399C8.41097 11.5734 8.23519 11.6401 8.00732 11.6401C7.7762 11.6401 7.59554 11.575 7.46533 11.4448C7.33838 11.3146 7.2749 11.1291 7.2749 10.8882Z" fill="white"/>
</svg>
