<svg width="24" height="25" viewBox="0 0 24 25" fill="none" xmlns="http://www.w3.org/2000/svg">
  <mask id="mask0_43_247" style="mask-type:alpha" maskUnits="userSpaceOnUse" x="0" y="0" width="24"
    height="25">
    <g clip-path="url(#clip0_43_247)">
      <path fill-rule="evenodd" clip-rule="evenodd"
        d="M4.99993 5.12199C4.23993 5.12199 3.62193 5.73899 3.62193 6.49999V16.5C3.62193 17.261 4.23893 17.878 4.99993 17.878H13.9999C14.0816 17.878 14.1625 17.8941 14.238 17.9253C14.3134 17.9566 14.382 18.0024 14.4397 18.0602C14.4975 18.1179 14.5433 18.1865 14.5746 18.262C14.6058 18.3374 14.6219 18.4183 14.6219 18.5C14.6219 18.5817 14.6058 18.6626 14.5746 18.738C14.5433 18.8135 14.4975 18.8821 14.4397 18.9398C14.382 18.9976 14.3134 19.0434 14.238 19.0746C14.1625 19.1059 14.0816 19.122 13.9999 19.122H4.99993C4.30453 19.122 3.63762 18.8457 3.1459 18.354C2.65418 17.8623 2.37793 17.1954 2.37793 16.5V6.49999C2.37793 5.80459 2.65418 5.13768 3.1459 4.64596C3.63762 4.15424 4.30453 3.87799 4.99993 3.87799H16.9999C17.6953 3.87799 18.3622 4.15424 18.854 4.64596C19.3457 5.13768 19.6219 5.80459 19.6219 6.49999V13.5C19.6219 13.665 19.5564 13.8232 19.4398 13.9398C19.3231 14.0565 19.1649 14.122 18.9999 14.122C18.835 14.122 18.6768 14.0565 18.5601 13.9398C18.4435 13.8232 18.3779 13.665 18.3779 13.5V6.49999C18.3779 5.73999 17.7609 5.12199 16.9999 5.12199H4.99993Z"
        fill="#29333D" />
      <path fill-rule="evenodd" clip-rule="evenodd"
        d="M8.70596 6.95099C8.80541 6.8976 8.91751 6.87228 9.03026 6.87774C9.143 6.8832 9.25213 6.91924 9.34596 6.98199L15.346 10.982C15.4314 11.0388 15.5014 11.1158 15.5498 11.2061C15.5983 11.2965 15.6236 11.3975 15.6236 11.5C15.6236 11.6025 15.5983 11.7035 15.5498 11.7939C15.5014 11.8842 15.4314 11.9612 15.346 12.018L9.34596 16.018C9.25223 16.081 9.14311 16.1173 9.03032 16.123C8.91753 16.1287 8.80532 16.1036 8.70572 16.0503C8.60612 15.9971 8.5229 15.9177 8.46498 15.8208C8.40706 15.7238 8.37663 15.6129 8.37696 15.5V7.49999C8.37696 7.26999 8.50296 7.05999 8.70496 6.95099H8.70596ZM9.62196 8.66299V14.337L13.878 11.5L9.62196 8.66299ZM15.378 18.5C15.378 18.156 15.656 17.878 16 17.878H21.756C21.8376 17.878 21.9185 17.8941 21.994 17.9253C22.0695 17.9566 22.138 18.0024 22.1958 18.0602C22.2535 18.1179 22.2993 18.1865 22.3306 18.262C22.3619 18.3374 22.378 18.4183 22.378 18.5C22.378 18.5817 22.3619 18.6626 22.3306 18.738C22.2993 18.8135 22.2535 18.8821 22.1958 18.9398C22.138 18.9976 22.0695 19.0434 21.994 19.0746C21.9185 19.1059 21.8376 19.122 21.756 19.122H16C15.835 19.122 15.6768 19.0565 15.5601 18.9398C15.4435 18.8232 15.378 18.665 15.378 18.5Z"
        fill="#29333D" />
      <path fill-rule="evenodd" clip-rule="evenodd"
        d="M18.9999 15.122C19.3439 15.122 19.6219 15.401 19.6219 15.744V21.5C19.6219 21.665 19.5564 21.8232 19.4398 21.9398C19.3231 22.0565 19.1649 22.122 18.9999 22.122C18.835 22.122 18.6768 22.0565 18.5601 21.9398C18.4435 21.8232 18.3779 21.665 18.3779 21.5V15.744C18.3779 15.401 18.6559 15.122 18.9999 15.122Z"
        fill="#29333D" />
    </g>
  </mask>
  <g mask="url(#mask0_43_247)">
    <rect y="0.5" width="24" height="24" fill="currentColor" />
  </g>
  <defs>
    <clipPath id="clip0_43_247">
      <rect width="24" height="24" fill="white" transform="translate(0 0.5)" />
    </clipPath>
  </defs>
</svg>