<svg viewBox="0 0 20 20" fill="none" xmlns="http://www.w3.org/2000/svg">
  <mask id="mask0_188_4549" style="mask-type:alpha" maskUnits="userSpaceOnUse" x="0" y="0"
    width="20" height="20">
    <g clip-path="url(#clip0_188_4549)">
      <path fill-rule="evenodd" clip-rule="evenodd"
        d="M8.33279 3.85161C7.69945 3.85161 7.18445 4.36578 7.18445 4.99994V6.14828H12.8145V4.99994C12.8145 4.36661 12.3003 3.85161 11.6661 3.85161H8.33279ZM6.66612 7.18494H14.4811V14.9999C14.4811 15.6341 13.967 16.1483 13.3328 16.1483H6.66612C6.03279 16.1483 5.51779 15.6341 5.51779 14.9999V7.18494H6.66612ZM4.99945 6.14828H6.14779V4.99994C6.14757 4.71294 6.20393 4.42871 6.31366 4.16352C6.42339 3.89832 6.58433 3.65736 6.78727 3.45443C6.99021 3.25149 7.23117 3.09055 7.49636 2.98082C7.76156 2.87109 8.04579 2.81472 8.33279 2.81494H11.6661C11.9531 2.81472 12.2373 2.87109 12.5025 2.98082C12.7677 3.09055 13.0087 3.25149 13.2116 3.45443C13.4146 3.65736 13.5755 3.89832 13.6852 4.16352C13.795 4.42871 13.8513 4.71294 13.8511 4.99994V6.14828H16.6661C16.8036 6.14828 16.9354 6.20289 17.0326 6.30009C17.1298 6.3973 17.1845 6.52914 17.1845 6.66661C17.1845 6.80408 17.1298 6.93592 17.0326 7.03313C16.9354 7.13033 16.8036 7.18494 16.6661 7.18494H15.5178V14.9999C15.518 15.2869 15.4616 15.5712 15.3519 15.8364C15.2422 16.1016 15.0812 16.3425 14.8783 16.5455C14.6754 16.7484 14.4344 16.9093 14.1692 17.0191C13.904 17.1288 13.6198 17.1852 13.3328 17.1849H6.66612C6.37912 17.1852 6.09489 17.1288 5.8297 17.0191C5.5645 16.9093 5.32354 16.7484 5.1206 16.5455C4.91766 16.3425 4.75673 16.1016 4.647 15.8364C4.53727 15.5712 4.4809 15.2869 4.48112 14.9999V7.18494H3.33279C3.19532 7.18494 3.06348 7.13033 2.96627 7.03313C2.86906 6.93592 2.81445 6.80408 2.81445 6.66661C2.81445 6.52914 2.86906 6.3973 2.96627 6.30009C3.06348 6.20289 3.19532 6.14828 3.33279 6.14828H4.99945ZM8.33279 9.48161C8.61945 9.48161 8.85112 9.71328 8.85112 9.99994V13.3333C8.85112 13.4013 8.83771 13.4687 8.81166 13.5316C8.78561 13.5945 8.74743 13.6517 8.6993 13.6998C8.65117 13.7479 8.59403 13.7861 8.53114 13.8122C8.46826 13.8382 8.40085 13.8516 8.33279 13.8516C8.26472 13.8516 8.19732 13.8382 8.13443 13.8122C8.07154 13.7861 8.0144 13.7479 7.96627 13.6998C7.91814 13.6517 7.87996 13.5945 7.85391 13.5316C7.82786 13.4687 7.81445 13.4013 7.81445 13.3333V9.99994C7.81445 9.71328 8.04695 9.48161 8.33279 9.48161ZM12.1845 9.99994C12.1845 9.86247 12.1298 9.73063 12.0326 9.63343C11.9354 9.53622 11.8036 9.48161 11.6661 9.48161C11.5286 9.48161 11.3968 9.53622 11.2996 9.63343C11.2024 9.73063 11.1478 9.86247 11.1478 9.99994V13.3333C11.1478 13.4013 11.1612 13.4687 11.1872 13.5316C11.2133 13.5945 11.2515 13.6517 11.2996 13.6998C11.3477 13.7479 11.4049 13.7861 11.4678 13.8122C11.5306 13.8382 11.5981 13.8516 11.6661 13.8516C11.7342 13.8516 11.8016 13.8382 11.8645 13.8122C11.9274 13.7861 11.9845 13.7479 12.0326 13.6998C12.0808 13.6517 12.1189 13.5945 12.145 13.5316C12.171 13.4687 12.1845 13.4013 12.1845 13.3333V9.99994Z"
        fill="black" />
    </g>
  </mask>
  <g mask="url(#mask0_188_4549)">
    <rect width="20" height="20" fill="currentColor" />
  </g>
  <defs>
    <clipPath id="clip0_188_4549">
      <rect width="20" height="20" fill="white" />
    </clipPath>
  </defs>
</svg>