<svg width="16" height="16" viewBox="0 0 16 16" fill="none" xmlns="http://www.w3.org/2000/svg">
<rect width="16" height="16" rx="8" fill="#EDAB00"/>
<path d="M7.28646 9.6875V9.40625C7.28646 9 7.34896 8.66667 7.47396 8.40625C7.59896 8.14236 7.8316 7.86458 8.17188 7.57292C8.6441 7.17361 8.94097 6.87326 9.0625 6.67188C9.1875 6.47049 9.25 6.22743 9.25 5.94271C9.25 5.58854 9.13542 5.31597 8.90625 5.125C8.68056 4.93056 8.35417 4.83333 7.92708 4.83333C7.65278 4.83333 7.38542 4.86632 7.125 4.93229C6.86458 4.99479 6.56597 5.11111 6.22917 5.28125L5.92188 4.57812C6.57812 4.23438 7.26389 4.0625 7.97917 4.0625C8.64236 4.0625 9.15799 4.22569 9.52604 4.55208C9.8941 4.87847 10.0781 5.33854 10.0781 5.93229C10.0781 6.18576 10.0434 6.40972 9.97396 6.60417C9.90799 6.79514 9.80903 6.97743 9.67708 7.15104C9.54514 7.32118 9.26042 7.59722 8.82292 7.97917C8.47222 8.27778 8.23958 8.52604 8.125 8.72396C8.01389 8.92188 7.95833 9.18576 7.95833 9.51562V9.6875H7.28646ZM7.03125 11.2344C7.03125 10.7622 7.23958 10.526 7.65625 10.526C7.85764 10.526 8.01215 10.5868 8.11979 10.7083C8.2309 10.8299 8.28646 11.0052 8.28646 11.2344C8.28646 11.4566 8.2309 11.6302 8.11979 11.7552C8.00868 11.8767 7.85417 11.9375 7.65625 11.9375C7.47569 11.9375 7.32639 11.8837 7.20833 11.776C7.09028 11.6649 7.03125 11.4844 7.03125 11.2344Z" fill="white"/>
</svg>
