<svg width="24" height="25" viewBox="0 0 24 25" fill="none" xmlns="http://www.w3.org/2000/svg">
  <mask id="mask0_43_298" style="mask-type:alpha" maskUnits="userSpaceOnUse" x="0" y="0" width="24"
    height="25">
    <g clip-path="url(#clip0_43_298)">
      <path
        d="M4 7.5C4 7.23478 4.10536 6.98043 4.29289 6.79289C4.48043 6.60536 4.73478 6.5 5 6.5H15C15.2652 6.5 15.5196 6.60536 15.7071 6.79289C15.8946 6.98043 16 7.23478 16 7.5V17.5C16 17.7652 15.8946 18.0196 15.7071 18.2071C15.5196 18.3946 15.2652 18.5 15 18.5H11C10.7348 18.5 10.4804 18.6054 10.2929 18.7929C10.1054 18.9804 10 19.2348 10 19.5V22.5L6.293 18.793C6.10551 18.6054 5.85119 18.5001 5.586 18.5H5C4.73478 18.5 4.48043 18.3946 4.29289 18.2071C4.10536 18.0196 4 17.7652 4 17.5V7.5Z"
        stroke="#29333D" stroke-width="1.33" stroke-linecap="round" stroke-linejoin="round" />
      <path
        d="M8 6.115V3.5C8 3.23478 8.10536 2.98043 8.29289 2.79289C8.48043 2.60536 8.73478 2.5 9 2.5H19C19.2652 2.5 19.5196 2.60536 19.7071 2.79289C19.8946 2.98043 20 3.23478 20 3.5V13.5C20 13.7652 19.8946 14.0196 19.7071 14.2071C19.5196 14.3946 19.2652 14.5 19 14.5H16.385M6.5 10.5H13.5M6.5 14.5H13.5"
        stroke="#29333D" stroke-width="1.33" stroke-linecap="round" stroke-linejoin="round" />
    </g>
  </mask>
  <g mask="url(#mask0_43_298)">
    <rect y="0.5" width="24" height="24" fill="currentColor" />
  </g>
  <defs>
    <clipPath id="clip0_43_298">
      <rect width="24" height="24" fill="white" transform="translate(0 0.5)" />
    </clipPath>
  </defs>
</svg>