<svg viewBox="0 0 9 9" fill="none" xmlns="http://www.w3.org/2000/svg">
  <g clip-path="url(#clip0_175_2404)">
    <path
      d="M7.5 3.375H4.125C3.71079 3.375 3.375 3.71079 3.375 4.125V7.5C3.375 7.91421 3.71079 8.25 4.125 8.25H7.5C7.91421 8.25 8.25 7.91421 8.25 7.5V4.125C8.25 3.71079 7.91421 3.375 7.5 3.375Z"
      stroke="currentColor" stroke-width="0.5625" stroke-linecap="round" stroke-linejoin="round" />
    <path
      d="M1.87549 5.62402H1.50049C1.30158 5.62402 1.11081 5.54501 0.970158 5.40435C0.829506 5.2637 0.750488 5.07294 0.750488 4.87402V1.49902C0.750488 1.30011 0.829506 1.10935 0.970158 0.968693C1.11081 0.828041 1.30158 0.749023 1.50049 0.749023H4.87549C5.0744 0.749023 5.26517 0.828041 5.40582 0.968693C5.54647 1.10935 5.62549 1.30011 5.62549 1.49902V1.87402"
      stroke="currentColor" stroke-width="0.5625" stroke-linecap="round" stroke-linejoin="round" />
  </g>
</svg>