<svg width="24" height="25" viewBox="0 0 24 25" fill="none" xmlns="http://www.w3.org/2000/svg">
  <mask id="mask0_43_259" style="mask-type:alpha" maskUnits="userSpaceOnUse" x="0" y="0" width="24"
    height="25">
    <g clip-path="url(#clip0_43_259)">
      <g clip-path="url(#clip1_43_259)">
        <mask id="mask1_43_259" style="mask-type:luminance" maskUnits="userSpaceOnUse" x="0" y="0"
          width="24" height="25">
          <path d="M0 0.5H24V24.5H0V0.5Z" fill="white" />
        </mask>
        <g mask="url(#mask1_43_259)">
          <path
            d="M17.9208 7.39801C17.8399 7.25479 17.7054 7.14957 17.5469 7.1055C17.3885 7.06143 17.219 7.08212 17.0758 7.16301C16.9325 7.2439 16.8273 7.37837 16.7833 7.53684C16.7392 7.69531 16.7599 7.86479 16.8408 8.00801C18.2258 10.458 18.2258 13.67 16.8408 16.12C16.7816 16.2269 16.7551 16.3488 16.7648 16.4706C16.7744 16.5924 16.8197 16.7086 16.895 16.8048C16.9703 16.901 17.0723 16.9729 17.1882 17.0116C17.3041 17.0502 17.4288 17.0538 17.5468 17.022C17.7052 16.9781 17.8397 16.8731 17.9208 16.73C19.5198 13.902 19.5198 10.227 17.9208 7.39801ZM7.15876 8.00901C7.19881 7.93809 7.22451 7.85999 7.23437 7.77914C7.24424 7.6983 7.23809 7.6163 7.21627 7.53784C7.19444 7.45937 7.15738 7.38597 7.10719 7.32183C7.057 7.25769 6.99467 7.20406 6.92376 7.16401C6.85285 7.12395 6.77474 7.09826 6.69389 7.08839C6.61305 7.07853 6.53106 7.08468 6.45259 7.1065C6.37413 7.12832 6.30073 7.16539 6.23658 7.21557C6.17244 7.26576 6.11881 7.32809 6.07876 7.39901L6.07976 7.39801C5.00476 9.29801 4.65176 11.579 5.01976 13.73C5.08476 14.104 5.16976 14.473 5.27776 14.836C5.47276 15.495 5.73976 16.131 6.07876 16.73C6.15965 16.8732 6.29412 16.9784 6.45259 17.0225C6.61106 17.0666 6.78054 17.0459 6.92376 16.965C7.06698 16.8841 7.17219 16.7496 7.21627 16.5912C7.26034 16.4327 7.23965 16.2632 7.15876 16.12C5.77376 13.67 5.77376 10.458 7.15876 8.00901Z"
            fill="currentColor" />
          <path
            d="M9.0965 10.24C9.17871 10.0976 9.20099 9.92832 9.15842 9.76948C9.11584 9.61064 9.01192 9.47521 8.8695 9.39299C8.72707 9.31078 8.55783 9.2885 8.39898 9.33107C8.24014 9.37365 8.10471 9.47757 8.0225 9.61999L8.0245 9.62199L8.0225 9.62099C7.60126 10.3667 7.37891 11.2086 7.37891 12.065C7.37891 12.9214 7.60026 13.7633 8.0215 14.509L8.0225 14.508C8.10471 14.6504 8.24014 14.7543 8.39898 14.7969C8.47763 14.818 8.55967 14.8234 8.6404 14.8127C8.72113 14.8021 8.79898 14.7757 8.8695 14.735C8.94002 14.6943 9.00183 14.6401 9.0514 14.5755C9.10097 14.5109 9.13734 14.4372 9.15842 14.3585C9.17949 14.2799 9.18488 14.1978 9.17425 14.1171C9.16363 14.0364 9.13721 13.9585 9.0965 13.888C8.78432 13.3309 8.62038 12.7031 8.62038 12.0645C8.62038 11.4259 8.78432 10.7981 9.0965 10.241L9.0945 10.24H9.0965Z"
            fill="currentColor" />
          <path fill-rule="evenodd" clip-rule="evenodd"
            d="M9.29988 22.12H14.6999C17.0109 22.12 18.7899 21.662 19.9759 20.476C21.1619 19.29 21.6199 17.51 21.6199 15.2V9.8C21.6199 7.48901 21.1619 5.71 19.9759 4.524C18.7899 3.338 17.0099 2.88 14.6999 2.88H9.29988C6.98888 2.88 5.20988 3.338 4.02388 4.524C2.83788 5.71 2.37988 7.49001 2.37988 9.8V15.2C2.37988 17.51 2.83788 19.29 4.02388 20.476C5.20988 21.662 6.98988 22.12 9.29988 22.12ZM19.0999 19.6C19.9379 18.76 20.3799 17.389 20.3799 15.2V9.8C20.3799 7.61 19.9379 6.24 19.0999 5.4C18.2599 4.562 16.8889 4.12 14.6999 4.12H9.29988C7.11088 4.12 5.73988 4.562 4.89988 5.4C4.06188 6.24 3.61988 7.61 3.61988 9.8V15.2C3.61988 17.389 4.06188 18.76 4.89988 19.6C5.73988 20.438 7.11088 20.88 9.29988 20.88H11.3939C11.3846 20.8373 11.38 20.7937 11.3799 20.75V14.279C10.9458 14.1459 10.5658 13.8771 10.2958 13.5121C10.0258 13.147 9.88005 12.705 9.87988 12.251V12.25C9.87994 11.8572 9.98907 11.4722 10.1951 11.1378C10.4011 10.8034 10.6959 10.5328 11.0467 10.3561C11.3975 10.1794 11.7904 10.1036 12.1818 10.1371C12.5731 10.1706 12.9475 10.3121 13.2631 10.5458C13.5788 10.7795 13.8233 11.0963 13.9695 11.4609C14.1157 11.8254 14.1578 12.2234 14.0911 12.6105C14.0244 12.9975 13.8515 13.3585 13.5918 13.6531C13.332 13.9477 12.9956 14.1644 12.6199 14.279V20.749C12.6198 20.7927 12.6151 20.8363 12.6059 20.879H14.6999C16.8889 20.879 18.2599 20.439 19.0999 19.6ZM12.8129 12.588C12.8571 12.4812 12.8799 12.3668 12.88 12.2512C12.88 12.1357 12.8573 12.0212 12.8131 11.9144C12.7689 11.8076 12.7041 11.7106 12.6224 11.6289C12.5406 11.5471 12.4436 11.4823 12.3369 11.438C12.2301 11.3937 12.1157 11.371 12.0001 11.3709C11.8845 11.3709 11.7701 11.3936 11.6633 11.4378C11.5565 11.482 11.4595 11.5468 11.3777 11.6285C11.296 11.7102 11.2311 11.8072 11.1869 11.914C11.0975 12.1296 11.0974 12.3719 11.1867 12.5876C11.276 12.8033 11.4473 12.9746 11.6629 13.064C11.8785 13.1534 12.1208 13.1534 12.3365 13.0642C12.5521 12.9749 12.7235 12.8036 12.8129 12.588Z"
            fill="currentColor" />
          <path
            d="M15.9774 9.61999C15.8952 9.47757 15.7597 9.37365 15.6009 9.33107C15.442 9.2885 15.2728 9.31078 15.1304 9.39299C14.9879 9.47521 14.884 9.61064 14.8415 9.76948C14.7989 9.92832 14.8212 10.0976 14.9034 10.24C15.2161 10.7974 15.3803 11.4258 15.3803 12.065C15.3803 12.7041 15.2161 13.3326 14.9034 13.89V13.889C14.8212 14.0314 14.7989 14.2007 14.8415 14.3595C14.884 14.5184 14.9879 14.6538 15.1304 14.736C15.2728 14.8182 15.442 14.8405 15.6009 14.7979C15.7597 14.7553 15.8952 14.6514 15.9774 14.509C16.3985 13.7633 16.6198 12.9214 16.6198 12.065C16.6198 11.2086 16.3985 10.3667 15.9774 9.62099V9.61999Z"
            fill="currentColor" />
        </g>
      </g>
    </g>
  </mask>
  <g mask="url(#mask0_43_259)">
    <rect y="0.5" width="24" height="24" fill="currentColor" />
  </g>
  <defs>
    <clipPath id="clip0_43_259">
      <rect width="24" height="24" fill="white" transform="translate(0 0.5)" />
    </clipPath>
    <clipPath id="clip1_43_259">
      <rect width="24" height="24" fill="white" transform="translate(0 0.5)" />
    </clipPath>
  </defs>
</svg>