<svg viewBox="0 0 20 28" xmlns="http://www.w3.org/2000/svg">
  <path
    d="M0.399414 1.51985C0.399414 0.989661 0.829221 0.559854 1.35941 0.559854H6.15941C6.68961 0.559854 7.11941 0.98966 7.11941 1.51985V26.1599C7.11941 26.69 6.68961 27.1199 6.15941 27.1199H1.35941C0.829221 27.1199 0.399414 26.69 0.399414 26.1599V1.51985Z"
  />
  <path
    d="M12.8791 1.51982C12.8791 0.989622 13.3089 0.559814 13.8391 0.559814H18.6391C19.1693 0.559814 19.5991 0.989621 19.5991 1.51981V26.1598C19.5991 26.69 19.1693 27.1198 18.6391 27.1198H13.8391C13.3089 27.1198 12.8791 26.69 12.8791 26.1598V1.51982Z"
  />
</svg>