<svg width="24" height="25" viewBox="0 0 24 25" fill="none" xmlns="http://www.w3.org/2000/svg">
  <mask id="mask0_43_234" style="mask-type:alpha" maskUnits="userSpaceOnUse" x="0" y="0" width="24"
    height="25">
    <g clip-path="url(#clip0_43_234)">
      <path fill-rule="evenodd" clip-rule="evenodd"
        d="M18.7423 7.5H5.25797C3.5275 7.5 2.15587 8.96004 2.26381 10.6871L2.76381 18.6871C2.86263 20.2682 4.17378 21.5 5.75797 21.5H18.2423C19.8265 21.5 21.1377 20.2682 21.2365 18.6871L21.7365 10.6871C21.8444 8.96004 20.4728 7.5 18.7423 7.5ZM5.25797 6.5C2.95068 6.5 1.12183 8.44672 1.26576 10.7495L1.76576 18.7495C1.89752 20.8577 3.64571 22.5 5.75797 22.5H18.2423C20.3546 22.5 22.1028 20.8577 22.2345 18.7495L22.7345 10.7495C22.8785 8.44672 21.0496 6.5 18.7423 6.5H5.25797Z"
        fill="black" />
      <path fill-rule="evenodd" clip-rule="evenodd"
        d="M3 5C3 4.72386 3.22386 4.5 3.5 4.5H20.5C20.7762 4.5 21 4.72386 21 5C21 5.27614 20.7762 5.5 20.5 5.5H3.5C3.22386 5.5 3 5.27614 3 5Z"
        fill="black" />
      <path fill-rule="evenodd" clip-rule="evenodd"
        d="M4 3C4 2.72386 4.22386 2.5 4.5 2.5H19.5C19.7762 2.5 20 2.72386 20 3C20 3.27614 19.7762 3.5 19.5 3.5H4.5C4.22386 3.5 4 3.27614 4 3Z"
        fill="black" />
      <path fill-rule="evenodd" clip-rule="evenodd"
        d="M9 11.5056C9 10.7144 9.85745 10.2629 10.5133 10.6288L16.4889 14.0892C16.8672 14.3006 17 14.7078 17 15.0256C17 15.3434 16.8672 15.7507 16.4889 15.9621L16.4872 15.963L10.5139 19.4121L10.513 19.4126C9.85723 19.7782 9 19.3268 9 18.5356V11.5056ZM15.9343 15.2C16.0704 15.1236 16.0704 14.9276 15.9343 14.8512L10.2979 11.5444C10.1646 11.4696 10 11.5659 10 11.7188V18.3325C10 18.4853 10.1646 18.5817 10.2979 18.5069L15.9343 15.2Z"
        fill="black" />
    </g>
  </mask>
  <g mask="url(#mask0_43_234)">
    <rect y="0.5" width="24" height="24" fill="currentColor" />
  </g>
  <defs>
    <clipPath id="clip0_43_234">
      <rect width="24" height="24" fill="white" transform="translate(0 0.5)" />
    </clipPath>
  </defs>
</svg>