<svg width="231" height="26" viewBox="0 0 231 26" fill="none" xmlns="http://www.w3.org/2000/svg">
  <path
    d="M16.3153 8.0495H0.976562V25.1011H5.24583V19.5536H13.4265L17.1589 25.1011H21.9394L17.8235 19.528C19.1017 19.3234 20.0221 18.8376 20.5846 18.0708C21.147 17.3038 21.4281 16.0767 21.4281 14.4406V13.1624C21.4281 12.1909 21.3259 11.424 21.147 10.836C20.9679 10.248 20.6612 9.73676 20.2266 9.27659C19.7664 8.842 19.2552 8.53522 18.6417 8.3307C18.0282 8.15175 17.2612 8.0495 16.3153 8.0495ZM15.625 15.7955H5.24583V11.8075H15.625C16.213 11.8075 16.622 11.9097 16.8265 12.0887C17.0311 12.2676 17.1589 12.6 17.1589 13.0857V14.5173C17.1589 15.0286 17.0311 15.3609 16.8265 15.5399C16.622 15.7188 16.213 15.7955 15.625 15.7955Z"
    fill="#1C293E" />
  <path
    d="M27.7087 20.0647V8.0495H23.4395V19.9625C23.4395 20.934 23.5161 21.7265 23.695 22.3145C23.8739 22.928 24.1808 23.4393 24.641 23.874C25.0755 24.334 25.5868 24.6409 26.2003 24.8198C26.8139 25.0244 27.5809 25.1011 28.5523 25.1011H38.7781C39.7241 25.1011 40.4909 25.0244 41.1045 24.8198C41.718 24.6409 42.2294 24.334 42.6896 23.874C43.124 23.4393 43.4309 22.928 43.6098 22.3145C43.7887 21.7265 43.8911 20.934 43.8911 19.9625V8.0495H39.6217V20.0647C39.6217 20.5761 39.4939 20.9085 39.2894 21.0874C39.0849 21.2663 38.6759 21.3431 38.0879 21.3431H29.2425C28.629 21.3431 28.22 21.2663 28.0154 21.0874C27.8109 20.9085 27.7087 20.5761 27.7087 20.0647Z"
    fill="#1C293E" />
  <path d="M58.3333 25.1011V11.8075H66.5907V8.0495H45.8066V11.8075H54.064V25.1011H58.3333Z"
    fill="#1C293E" />
  <path
    d="M72.7741 20.0647V8.0495H68.5049V19.9625C68.5049 20.934 68.5816 21.7265 68.7606 22.3145C68.9395 22.928 69.2462 23.4393 69.7064 23.874C70.1411 24.334 70.6524 24.6409 71.2659 24.8198C71.8795 25.0244 72.6464 25.1011 73.6179 25.1011H83.8437C84.7895 25.1011 85.5564 25.0244 86.1699 24.8198C86.7835 24.6409 87.2948 24.334 87.755 23.874C88.1896 23.4393 88.4963 22.928 88.6754 22.3145C88.8543 21.7265 88.9565 20.934 88.9565 19.9625V8.0495H84.6873V20.0647C84.6873 20.5761 84.5595 20.9085 84.3548 21.0874C84.1504 21.2663 83.7413 21.3431 83.1533 21.3431H74.3081C73.6945 21.3431 73.2855 21.2663 73.081 21.0874C72.8764 20.9085 72.7741 20.5761 72.7741 20.0647Z"
    fill="#1C293E" />
  <path
    d="M110.592 13.009V12.6767C110.592 11.0917 110.183 9.91569 109.365 9.17433C108.547 8.43296 107.243 8.0495 105.505 8.0495H91.0098V25.1011H106.348C108.087 25.1011 109.391 24.7431 110.209 24.0018C111.027 23.2604 111.436 22.0844 111.436 20.4994V20.1416C111.436 18.5565 111.027 17.4317 110.209 16.767C110.055 16.6647 109.902 16.588 109.749 16.5113C109.595 16.4346 109.365 16.3324 109.084 16.2301C109.646 15.9234 110.03 15.5143 110.26 15.0542C110.464 14.594 110.592 13.9038 110.592 13.009ZM95.279 14.8752V11.8075H104.815C105.428 11.8075 105.837 11.9097 106.042 12.0887C106.246 12.2676 106.348 12.6 106.348 13.0857V13.597C106.348 14.1083 106.246 14.4406 106.042 14.6196C105.837 14.7985 105.428 14.8752 104.815 14.8752H95.279ZM95.279 21.3431V18.2752H105.684C106.272 18.2752 106.681 18.3776 106.885 18.5565C107.09 18.7354 107.218 19.0678 107.218 19.5536V20.0647C107.218 20.5761 107.09 20.9085 106.885 21.0874C106.681 21.2663 106.272 21.3431 105.684 21.3431H95.279Z"
    fill="#1C293E" />
  <path
    d="M117.226 11.8075H131.185V8.0495H112.957V25.1011H131.875V21.3431H117.226V18.4543H130.852L131.185 14.6963H117.226V11.8075Z"
    fill="#1C293E" />
  <path
    d="M136.937 7.02025C138.586 7.02025 139.924 5.68279 139.924 4.03295C139.924 2.38311 138.586 1.04565 136.937 1.04565C135.287 1.04565 133.949 2.38311 133.949 4.03295C133.949 5.68279 135.287 7.02025 136.937 7.02025Z"
    fill="#F41240" />
  <path
    d="M157.683 12.0442C157.29 9.00764 155.85 7.85586 152.447 7.85586H145.458C143.495 7.85586 142.317 8.22233 141.453 9.11235C140.668 9.89766 140.223 11.1803 140.223 12.5677V13.196C140.223 14.5833 140.668 15.8398 141.453 16.6513C142.317 17.5414 143.495 17.9078 145.458 17.9078H151.688C153.364 17.9078 153.808 18.0125 154.306 18.4314C154.672 18.7717 154.829 19.2166 154.829 19.9758V20.6303C154.829 21.3894 154.672 21.8344 154.306 22.1746C153.808 22.5935 153.364 22.6982 151.688 22.6982H146.165C144.489 22.6982 143.992 22.5935 143.547 22.1746C143.233 21.8867 143.102 21.4941 143.024 20.7611L140.223 21.1275C140.615 24.1641 142.055 25.316 145.458 25.316H152.447C154.384 25.316 155.589 24.9494 156.426 24.0594C157.212 23.2742 157.683 21.9914 157.683 20.6303V20.0019C157.683 18.5885 157.212 17.3319 156.426 16.5466C155.589 15.6566 154.384 15.2901 152.447 15.2901H146.191C144.542 15.2901 144.071 15.1854 143.573 14.7666C143.207 14.4263 143.05 13.9813 143.05 13.196V12.5677C143.05 11.7824 143.207 11.3374 143.573 10.9971C144.071 10.5783 144.542 10.4736 146.191 10.4736H151.74C153.416 10.4736 153.913 10.5783 154.358 10.9971C154.672 11.3112 154.803 11.6777 154.882 12.4107L157.683 12.0442ZM167.618 22.6982C165.053 22.7506 164.477 22.2795 164.477 20.0805V13.9813H170.418L170.759 11.3636H164.477V7.85586H161.676V11.3636H159.765V13.9813H161.676V20.0805C161.676 22.0699 162.016 23.1955 162.906 24.0594C163.822 24.9494 164.974 25.316 166.911 25.316H171.99V22.6982H167.618ZM188.565 11.3636H185.764V22.6982H180.554C178.852 22.6982 178.356 22.5935 177.936 22.1746C177.517 21.7297 177.412 21.1799 177.412 19.557V11.3636H174.612V20.0805C174.612 22.0699 174.952 23.1955 175.842 24.0594C176.759 24.9494 177.91 25.316 179.847 25.316H188.565V11.3636ZM205.915 25.316V6.10199H203.114V11.3636H197.199C195.26 11.3636 194.109 11.73 193.193 12.6201C192.303 13.4839 191.962 14.6095 191.962 16.599V20.0805C191.962 22.0699 192.303 23.1955 193.193 24.0594C194.109 24.9494 195.26 25.316 197.199 25.316H205.915ZM203.114 13.9813V22.6982H197.904C196.204 22.6982 195.706 22.5935 195.287 22.1746C194.868 21.7297 194.764 21.1799 194.764 19.557V17.1225C194.764 15.4995 194.868 14.9498 195.287 14.5048C195.706 14.086 196.204 13.9813 197.904 13.9813H203.114ZM209.652 25.316H212.451V11.3636H209.652V25.316ZM209.652 8.71969H212.451V6.10199H209.652V8.71969ZM230.173 16.599C230.173 14.6095 229.833 13.4839 228.943 12.6201C228.027 11.73 226.875 11.3636 224.938 11.3636H221.09C219.153 11.3636 218 11.73 217.085 12.6201C216.195 13.4839 215.854 14.6095 215.854 16.599V20.0805C215.854 22.0699 216.195 23.1955 217.085 24.0594C218 24.9494 219.153 25.316 221.09 25.316H224.938C226.875 25.316 228.027 24.9494 228.943 24.0594C229.833 23.1955 230.173 22.0699 230.173 20.0805V16.599ZM218.655 17.1225C218.655 15.4995 218.76 14.9498 219.178 14.5048C219.597 14.086 220.095 13.9813 221.796 13.9813H224.231C225.933 13.9813 226.429 14.086 226.848 14.5048C227.267 14.9498 227.371 15.4995 227.371 17.1225V19.557C227.371 21.1799 227.267 21.7297 226.848 22.1746C226.429 22.5935 225.933 22.6982 224.231 22.6982H221.796C220.095 22.6982 219.597 22.5935 219.178 22.1746C218.76 21.7297 218.655 21.1799 218.655 19.557V17.1225Z"
    fill="#F41240" />
</svg>